<?xml version="1.0" encoding="utf-8"?>
<!-- Generator: Adobe Illustrator 25.4.2, SVG Export Plug-In . SVG Version: 6.00 Build 0)  -->
<!DOCTYPE svg PUBLIC "-//W3C//DTD SVG 1.1//EN" "http://www.w3.org/Graphics/SVG/1.1/DTD/svg11.dtd" [
	<!ENTITY ns_extend "http://ns.adobe.com/Extensibility/1.0/">
	<!ENTITY ns_ai "http://ns.adobe.com/AdobeIllustrator/10.0/">
	<!ENTITY ns_graphs "http://ns.adobe.com/Graphs/1.0/">
	<!ENTITY ns_vars "http://ns.adobe.com/Variables/1.0/">
	<!ENTITY ns_imrep "http://ns.adobe.com/ImageReplacement/1.0/">
	<!ENTITY ns_sfw "http://ns.adobe.com/SaveForWeb/1.0/">
	<!ENTITY ns_custom "http://ns.adobe.com/GenericCustomNamespace/1.0/">
	<!ENTITY ns_adobe_xpath "http://ns.adobe.com/XPath/1.0/">
]>
<svg version="1.1" id="Capa_1" xmlns:x="&ns_extend;" xmlns:i="&ns_ai;" xmlns:graph="&ns_graphs;"
	 xmlns="http://www.w3.org/2000/svg" xmlns:xlink="http://www.w3.org/1999/xlink" x="0px" y="0px" viewBox="0 0 221.5 220.9"
	 style="enable-background:new 0 0 221.5 220.9;" xml:space="preserve">
<style type="text/css">
	.st0{fill:#E5D2C1;}
</style>
<metadata>
	<sfw  xmlns="&ns_sfw;">
		<slices></slices>
		<sliceSourceBounds  bottomLeftOrigin="true" height="220.9" width="221.5" x="0" y="0"></sliceSourceBounds>
	</sfw>
</metadata>
<g>
	<g>
		<path class="st0" d="M112.3,52.2c0.6-15.6-8.2-23.8-21.4-23.8c-13.7,0-22.6,9.2-22.6,20.4c0,11.6,6.4,21.1,21.4,37.2l56.1,55.8
			l21.7-35.7H205l-27.5,47c-2.4,4.3-5.2,8.5-7.6,12.5l51.6,51.3H176l-26.2-26.2c-20.4,20.4-43.9,30.2-73.5,30.2
			c-45.8,0-76.3-25.3-76.3-65c0-28.7,16.2-52.8,49.7-66.5C37.8,75.1,33.6,63.8,33.6,48.8C33.6,21.1,56.1,0,92.5,0
			c36.9,0,56.8,23.2,54.6,52.2H112.3z M126.9,167.8l-56.1-56.5c-24.7,9.8-36,24.4-36,43.3c0,20.4,16.5,36.6,41.5,36.6
			C96.1,191.3,112.3,183.4,126.9,167.8z"/>
	</g>
</g>
</svg>
