<?xml version="1.0" encoding="utf-8"?>
<!-- Generator: Adobe Illustrator 25.4.2, SVG Export Plug-In . SVG Version: 6.00 Build 0)  -->
<!DOCTYPE svg PUBLIC "-//W3C//DTD SVG 1.1//EN" "http://www.w3.org/Graphics/SVG/1.1/DTD/svg11.dtd" [
	<!ENTITY ns_extend "http://ns.adobe.com/Extensibility/1.0/">
	<!ENTITY ns_ai "http://ns.adobe.com/AdobeIllustrator/10.0/">
	<!ENTITY ns_graphs "http://ns.adobe.com/Graphs/1.0/">
	<!ENTITY ns_vars "http://ns.adobe.com/Variables/1.0/">
	<!ENTITY ns_imrep "http://ns.adobe.com/ImageReplacement/1.0/">
	<!ENTITY ns_sfw "http://ns.adobe.com/SaveForWeb/1.0/">
	<!ENTITY ns_custom "http://ns.adobe.com/GenericCustomNamespace/1.0/">
	<!ENTITY ns_adobe_xpath "http://ns.adobe.com/XPath/1.0/">
]>
<svg version="1.1" id="Capa_1" xmlns:x="&ns_extend;" xmlns:i="&ns_ai;" xmlns:graph="&ns_graphs;"
	 xmlns="http://www.w3.org/2000/svg" xmlns:xlink="http://www.w3.org/1999/xlink" x="0px" y="0px" viewBox="0 0 8192 1415.3"
	 style="enable-background:new 0 0 8192 1415.3;" xml:space="preserve">
<style type="text/css">
	.st0{clip-path:url(#SVGID_00000108285197501863710740000009222474894679193475_);}
	.st1{fill:#9B6D56;}
	.st2{fill:#B49073;}
	.st3{fill:#FDFCF4;}
</style>
<metadata>
	<sfw  xmlns="&ns_sfw;">
		<slices></slices>
		<sliceSourceBounds  bottomLeftOrigin="true" height="2605.9" width="10393.1" x="-1298.5" y="-1128.8"></sliceSourceBounds>
	</sfw>
</metadata>
<g>
	<defs>
		
			<rect id="SVGID_1_" x="4.1" y="12.9" transform="matrix(-1 -3.239199e-11 3.239199e-11 -1 8200.2178 1440.4374)" width="8192" height="1414.7"/>
	</defs>
	<clipPath id="SVGID_00000055675779137532620080000006139951673772576148_">
		<use xlink:href="#SVGID_1_"  style="overflow:visible;"/>
	</clipPath>
	<g style="clip-path:url(#SVGID_00000055675779137532620080000006139951673772576148_);">
		<path class="st1" d="M8587.8,837.6c0,0-1418.8-792.2-2885-496.6s-1844.5,981.4-3204.2,756.7v1076.8h6018.2L8587.8,837.6z"/>
		<path class="st2" d="M8544.5,605.2c0,0-801.5,455.7-2828.8,78.6S906.8-589.2-224.7,668v1744.4h8847.7L8544.5,605.2z"/>
		<path class="st3" d="M8953.1,623c0,0-848.6,1052.9-3520.2,644.3S183.9-477.1-1277.6,1235.9c0,0-47.1,1382.9,0,1382.9
			c47.1,0,10372.1,0,10372.1,0L8953.1,623z"/>
	</g>
</g>
</svg>
